<svg xmlns="http://www.w3.org/2000/svg" width="153.442" height="36.553" viewBox="0 0 153.442 36.553"><defs><style>.a{fill:#47abff;}.a,.b{fill-rule:evenodd;}.b{fill:#fff;}</style></defs><g transform="translate(-28 -24)"><path class="a" d="M15.22,43.561h7.393V28.508h1.429V23.738h1.145v4.769h1.429V43.561H34.2V35.344h1.429V31.01h1.146v4.334H38.2v8.216h7.578V22.021h1.429V17.087h1.145v4.934h1.429v21.54h7.394V7.008H45.309L36.2,20.521,27.089,7.008H15.22Z" transform="translate(12.78 16.992)"/><path class="b" d="M35.862,9.838H30.41L23.931,20.445,17.454,9.838H12V33.711h5.454V19.831l6.172,10.128h.612L30.41,19.831V33.711h5.452ZM50.687,34.189c5.25,0,9.2-3.07,9.2-8.185V9.838H54.436V25.526c0,1.808-.852,3.342-3.749,3.342s-3.75-1.537-3.75-3.342V9.838H41.483V26C41.483,31.119,45.437,34.189,50.687,34.189ZM75.057,9.838H65.512V33.711h9.544a11.557,11.557,0,0,0,11.59-11.936A11.557,11.557,0,0,0,75.056,9.838Zm0,18.621h-4.09V15.09h4.09c3.75,0,6.341,2.592,6.341,6.685s-2.592,6.684-6.342,6.684Zm30.676,5.252H111.7L103.585,9.838H96.631L88.519,33.711h5.965l1.193-3.752h8.862Zm-8.421-8.867,2.8-8.765,2.8,8.765Z" transform="translate(69.744 20.987)"/></g></svg>