<svg xmlns="http://www.w3.org/2000/svg" width="139.036" height="104.424" viewBox="0 0 139.036 104.424"><defs><style>.a{fill:#4474c5;}.b{fill:#4f5659;}.c{fill:#395687;}.d{fill:#8ecbff;}.e,.g{fill:#47abff;}.f{fill:#fff;}.g{opacity:0.2;}</style></defs><g transform="translate(-1054 -2056.093)"><g transform="translate(1088.187 2087.483)"><path class="a" d="M197.279,152H157.031L152,204.826h50.311l-3.283-34.469Z" transform="translate(-131.876 -131.876)"/><path class="b" d="M229.382,51.671a1.258,1.258,0,0,1-1.258-1.258V35.32a8.8,8.8,0,0,0-17.609,0V50.413a1.258,1.258,0,0,1-2.516,0V35.32a11.32,11.32,0,0,1,22.64,0V50.413A1.258,1.258,0,0,1,229.382,51.671Z" transform="translate(-179.071 -24)"/><path class="c" d="M117.279,152H77.031L72,204.826h50.311Z" transform="translate(-64.453 -131.876)"/><path class="b" d="M181.382,55.444a1.258,1.258,0,0,1-1.258-1.258V35.32a8.8,8.8,0,1,0-17.609,0V54.186a1.258,1.258,0,1,1-2.516,0V35.32a11.32,11.32,0,0,1,22.64,0V54.186A1.258,1.258,0,0,1,181.382,55.444Z" transform="translate(-138.618 -24)"/><path class="c" d="M403.625,204.826H401.9l-5.171-5.531-4.116,5.531h-1.569l-.178-1.868,4.456-5.985-4.272-44.853c0-.041-.006-.08-.006-.119h2.52l4.267,44.789,5.6,5.987Z" transform="translate(-333.191 -131.876)"/><path class="d" d="M24,456H44.124v5.031H24Z" transform="translate(-24 -388.081)"/><path class="e" d="M24,424H44.124v5.031H24Z" transform="translate(-24 -361.112)"/><path class="e" d="M360,456h20.124v5.031H360Z" transform="translate(-307.174 -388.081)"/><path class="d" d="M360,424h20.124v5.031H360Z" transform="translate(-307.174 -361.112)"/><path class="d" d="M24,392H44.124v5.031H24Z" transform="translate(-24 -334.143)"/><path class="e" d="M40,360H62.64v5.031H40Z" transform="translate(-37.484 -307.174)"/><path class="d" d="M56,328H76.124v5.031H56Z" transform="translate(-50.969 -280.205)"/><path class="e" d="M56,296H76.124v5.031H56Z" transform="translate(-50.969 -253.236)"/><path class="d" d="M24,264H44.124v5.031H24Z" transform="translate(-24 -226.267)"/><ellipse class="d" cx="9.14" cy="10.282" rx="9.14" ry="10.282" transform="translate(20.481 52.469)"/><path class="e" d="M195.773,375.547a1.258,1.258,0,1,1,1.258-1.258,1.258,1.258,0,0,0,2.516,0,3.779,3.779,0,0,0-2.516-3.557v-1.474a1.258,1.258,0,0,0-2.516,0v1.474a3.773,3.773,0,0,0,1.258,7.33,1.258,1.258,0,1,1-1.258,1.258,1.258,1.258,0,0,0-2.516,0,3.779,3.779,0,0,0,2.516,3.557v1.474a1.258,1.258,0,1,0,2.516,0v-1.474a3.773,3.773,0,0,0-1.258-7.33Z" transform="translate(-165.587 -313.916)"/><g transform="translate(20.481 29.62)"><ellipse class="f" cx="2.285" cy="2.285" rx="2.285" ry="2.285" transform="translate(18.279 0)"/><ellipse class="f" cx="2.285" cy="2.285" rx="2.285" ry="2.285" transform="translate(0 0)"/></g></g><path class="g" d="M4924.116,1576.343v7.379l-6.051,5.017,7.083.59,5.755,5.755v-7.379l6.2-5.017-8.116-1.181Z" transform="translate(-3789.094 479.75)"/><path class="g" d="M4922.227,1576.343v5.075l-4.162,3.451,4.872.406,3.958,3.958v-5.075l4.263-3.451-5.582-.812Z" transform="translate(-3738.122 561.231)"/><path class="g" d="M4922.423,1576.343v5.314l-4.358,3.613,5.1.425,4.145,4.145v-5.314l4.463-3.613-5.845-.85Z" transform="translate(-3132.07 -877.029) rotate(18)"/></g></svg>